<svg xmlns="http://www.w3.org/2000/svg" xmlns:xlink="http://www.w3.org/1999/xlink" version="1.1" id="Layer_1" x="0px" y="0px" style="enable-background:new 0 0 1080 1080;" xml:space="preserve" viewBox="75.43 381.06 964.14 325.08">
<style type="text/css">
	.st0{fill:url(#SVGID_1_);}
	.st1{fill:url(#SVGID_2_);}
	.st2{stroke:#000000;stroke-miterlimit:10;}
	.st3{fill:#FDB714;}
	.st4{fill:url(#SVGID_3_);}
	.st5{fill:url(#SVGID_4_);}
	.st6{fill:url(#SVGID_5_);}
	.st7{fill:url(#SVGID_6_);}
	.st8{fill:url(#SVGID_7_);}
	.st9{fill:url(#SVGID_8_);}
	.st10{fill:url(#SVGID_9_);}
	.st11{fill:url(#SVGID_10_);}
	.st12{fill:url(#SVGID_11_);}
	.st13{fill:none;stroke:#000000;stroke-width:6;stroke-miterlimit:10;}
	.st14{font-family:'MyriadPro-Regular';}
	.st15{font-size:62.2356px;}
</style>
<g>
	<linearGradient id="SVGID_1_" gradientUnits="userSpaceOnUse" x1="256.3073" y1="662.8408" x2="256.3073" y2="381.0593">
		<stop offset="0" style="stop-color:#F7B01B"/>
		<stop offset="0.2" style="stop-color:#F7AD1E"/>
		<stop offset="0.3864" style="stop-color:#F6A526"/>
		<stop offset="0.5673" style="stop-color:#F59832"/>
		<stop offset="0.7449" style="stop-color:#F3863E"/>
		<stop offset="0.9185" style="stop-color:#F26E4A"/>
		<stop offset="1" style="stop-color:#F15F4E"/>
	</linearGradient>
	<path class="st0" d="M241.74,381.06c5.28,0.59,10.56,1.09,15.83,1.78c30.11,3.95,56.91,15.53,80.21,35   c28.74,24.01,47.21,54.31,55.01,90.9c1.62,7.63,2.03,15.51,2.97,23.29c0.26,2.15-0.08,3.76-2.88,3.83   c-29.2,0.73-56.82,9.09-84.15,18.24c-62.18,20.82-117.61,53.5-166.82,96.69c-3.95,3.46-6.95,8-10.41,12.06   c-2.22-1.86-3.08-2.44-3.76-3.18c-3.44-3.67-6.83-7.38-10.93-11.83c6.2-5.52,12.69-11.51,19.4-17.24   c12.66-10.8,26.08-20.55,40.93-28.19c4.59-2.36,7.36-5.97,9.42-10.68c14.49-33.16,29.16-66.24,43.79-99.33   c0.51-1.16,1.18-2.26,2.08-3.98c8.07,15.35,15.81,30.15,23.62,44.91c3.67,6.93,7.6,13.72,11.14,20.71   c1.63,3.22,3.39,3.45,6.67,2.34c13.96-4.75,28.02-9.2,42.1-13.62c2.59-0.81,5.39-0.98,8.03-1.43   c-15.09-27.47-29.96-54.53-44.83-81.59c-13.67-24.89-27.34-49.77-40.99-74.67c-0.7-1.27-1.17-2.66-1.75-3.99   C238.17,381.06,239.95,381.06,241.74,381.06z"/>
	<linearGradient id="SVGID_2_" gradientUnits="userSpaceOnUse" x1="151.8979" y1="635.4383" x2="151.8979" y2="381.0593">
		<stop offset="0" style="stop-color:#F7B01B"/>
		<stop offset="0.2" style="stop-color:#F7AD1E"/>
		<stop offset="0.3864" style="stop-color:#F6A526"/>
		<stop offset="0.5673" style="stop-color:#F59832"/>
		<stop offset="0.7449" style="stop-color:#F3863E"/>
		<stop offset="0.9185" style="stop-color:#F26E4A"/>
		<stop offset="1" style="stop-color:#F15F4E"/>
	</linearGradient>
	<path class="st1" d="M228.36,381.06c-0.41,1.95-0.48,4.05-1.29,5.82c-6.79,14.92-13.47,29.91-20.66,44.64   c-32.42,66.42-64.99,132.76-97.51,199.13c-0.65,1.32-1.33,2.62-2.44,4.79c-1.89-2.42-3.65-4.29-4.97-6.43   c-12.86-20.85-21.74-43.1-24.8-67.63C66.54,480,118.41,404.74,200.36,384.95c6.72-1.62,13.73-2.02,20.6-3.02   c1.29-0.19,2.56-0.58,3.84-0.87C225.98,381.06,227.17,381.06,228.36,381.06z"/>
</g>
<path class="st2" d="M555.33,567.98c-2.33,0.13-3.79,0.34-5.25,0.28c-18.83-0.8-37.65-2.16-56.49-2.34  c-32.67-0.31-65.23,1.11-96.88,10.57c-3.08,0.92-4.52,2.33-5.37,5.5c-16.27,60.87-54.64,100.99-115.38,117.72  c-41.81,11.52-82.61,6.2-120.72-15.51c-4.35-2.48-4.5-4.18-1.15-7.83c35.88-39.01,79.44-66.82,127.96-87.33  c29.29-12.38,59.76-20.95,91.11-26c14.45-2.33,29.19-3.27,43.84-3.83c21.35-0.82,42.79-1.71,64.11-0.74  c21.42,0.98,42.74,4.19,64.1,6.48c2.79,0.3,5.54,0.94,8.3,1.48C553.87,566.52,554.16,566.97,555.33,567.98z"/>
<g>
	<g>
		<path class="st3" d="M724.91,428.23c0,12.72,0,24.95,0,38.15c2.78-1.78,4.88-3.01,6.87-4.4c7.79-5.45,16.59-5.81,25.14-3.5    c10.71,2.88,17.55,10.63,17.94,21.75c0.68,19.51,0.19,39.06,0.19,58.91c-6.39,0-12.82,0-19.65,0c-0.07-1.42-0.17-2.85-0.19-4.27    c-0.25-14.37-0.43-28.74-0.77-43.11c-0.06-2.48-0.5-5.03-1.24-7.4c-2.4-7.76-11.52-10.59-19-5.92c-5.11,3.19-8.04,7.97-8.27,13.95    c-0.52,13.16-0.74,26.33-1.06,39.5c-0.06,2.34-0.01,4.68-0.01,7.54c-6.55,0-12.75,0.15-18.91-0.18c-0.82-0.04-2.14-2.49-2.16-3.84    c-0.17-11.26-0.1-22.53-0.1-33.8c0-22.98,0.07-45.96-0.08-68.94c-0.02-3.54,1-4.68,4.53-4.51    C713.58,428.43,719.04,428.23,724.91,428.23z"/>
		<path class="st3" d="M910.49,459.78c0,12.9-0.06,25.49,0.04,38.08c0.03,3.83,0.33,7.68,0.8,11.49c1.01,8.19,6.11,12.51,14.4,12.44    c7.28-0.06,12.96-4.95,13.27-12.74c0.56-13.91,0.44-27.85,0.59-41.77c0.03-2.48,0-4.95,0-7.64c7.15,0,13.75,0,20.84,0    c0,9.16,0.23,18.16-0.06,27.15c-0.34,10.31-0.18,20.79-1.99,30.88c-2.49,13.9-15.69,23.43-29.98,23.63    c-8.54,0.12-16.89-0.2-24.29-5.24c-9.25-6.3-12.45-15.85-13.9-26.19c-0.63-4.53-0.59-9.17-0.62-13.76    c-0.08-11.99-0.03-23.98-0.03-36.33C896.57,459.78,903.27,459.78,910.49,459.78z"/>
		<path class="st3" d="M873.38,475.84c-5.85,3.13-10.43,5.88-15.29,7.98c-1.35,0.58-3.93-0.28-5.29-1.32    c-8.92-6.88-18.67-7.17-28.58-3.31c-9.75,3.79-14.26,13.45-12.69,25.31c1.14,8.66,8.89,15.81,18.44,17.29    c9.03,1.4,16.98-0.52,23.93-6.64c0.89-0.78,3.28-0.92,4.33-0.29c4.56,2.75,8.88,5.89,14.04,9.4c-2.24,2.52-4.09,5.15-6.46,7.18    c-15.95,13.65-52.74,15.56-68.57-8.38c-15.15-22.91-5.42-57.52,26.24-64.38c15.6-3.38,30.44-1.33,43.05,9.48    C868.93,470.21,870.78,472.88,873.38,475.84z"/>
		<path class="st3" d="M973.67,526.97c4.24-4.45,8.31-8.72,11.82-12.4c5.31,2.71,10.01,5.25,14.86,7.49    c1.38,0.64,3.38,0.89,4.76,0.39c1.93-0.7,4.65-2.01,5-3.53c0.47-2.02-0.32-5.23-1.8-6.62c-2.62-2.46-6.2-3.89-9.32-5.84    c-4.87-3.06-10.3-5.54-14.4-9.42c-14.35-13.57-8.94-33.55,10.18-38.85c12.77-3.54,27.83,2.05,33.97,12.32    c-4.09,4.36-8.11,8.65-12.22,13.03c-1.95-1.58-3.52-3.2-5.4-4.29c-2.13-1.23-4.55-2.77-6.82-2.74c-2.46,0.03-6.03,1.06-7.08,2.85    c-1.7,2.91,1.25,5.15,3.76,6.52c5.57,3.05,11.41,5.62,16.87,8.84c7.2,4.25,12.21,10.29,13.02,19c1.01,10.87-3.44,18.96-13.1,24.01    C1002.52,545.67,982.06,540.86,973.67,526.97z"/>
		<path class="st3" d="M646.65,430.42c0,9.58,0,19.01,0,28.86c3.88,0,7.38,0,11.17,0c0,5.97,0,11.54,0,17.72c-3.53,0-7.13,0-11.16,0    c0,3.54,0,6.47,0,9.4c0,16.17-0.07,32.34,0.06,48.51c0.03,3.29-0.64,4.86-4.4,4.63c-5.29-0.33-10.61-0.08-16.31-0.08    c0-20.88,0-41.29,0-62.14c-3.57,0-6.76,0-10.32,0c0-6.1,0-11.77,0-17.84c3.25,0,6.46,0,10.06,0c0-9.82,0-19.26,0-29.05    C632.73,430.42,639.32,430.42,646.65,430.42z"/>
		<path class="st3" d="M588.87,466.34c12.16-10.03,15.81-11.06,25.03-6.85c-2.01,5.7-4.04,11.45-6.05,17.16    c-10.61-1.84-15.1,1.42-15.63,12.22c-0.64,13-0.63,26.03-0.86,39.05c-0.07,3.67-0.01,7.34-0.01,11.27c-6.98,0-13.56,0-20.44,0    c0-26.54,0-52.95,0-79.57c5.94,0,11.66,0,17.58,0C588.62,461.93,588.74,464.07,588.87,466.34z"/>
		<path class="st3" d="M665.98,459.59c6.88,0,13.51,0,20.7,0c0,13.28,0,26.42,0,39.56c0,13.19,0,26.38,0,39.94    c-6.9,0-13.63,0-20.7,0C665.98,512.68,665.98,486.23,665.98,459.59z"/>
		<path class="st3" d="M689.34,439.48c-0.06,7.9-5.35,13.58-12.7,13.62c-7.57,0.04-13.58-5.95-13.53-13.49    c0.05-7.06,6.44-13.41,13.39-13.3C683.37,426.41,689.39,432.58,689.34,439.48z"/>
		<path class="st3" d="M561.4,536.87c-13.19-34.3-26.36-68.61-39.71-102.85c-0.5-1.27-2.67-2.55-4.15-2.67    c-4.58-0.35-9.21,0.05-13.81-0.19c-3.08-0.16-4.69,0.76-5.86,3.79c-12.66,32.93-25.48,65.79-38.21,98.69    c-0.67,1.73-0.98,3.59-1.52,5.62c7.59,0,14.69,0,21.71,0c2.87-7.29,5.67-14.39,8.61-21.86c13.74,0,27.54-0.05,41.34,0.11    c0.98,0.01,2.4,1.47,2.85,2.57c2.25,5.45,4.16,11.04,6.39,16.51c0.46,1.12,1.72,2.68,2.66,2.72c6.63,0.24,13.28,0.13,20.18,0.13    C561.66,538.27,561.65,537.52,561.4,536.87z M496.44,496.39c4.57-11.62,8.99-22.87,13.72-34.9c4.78,12.15,9.16,23.3,13.72,34.9    C514.54,496.39,505.78,496.39,496.44,496.39z"/>
	</g>
	<g>
		<linearGradient id="SVGID_3_" gradientUnits="userSpaceOnUse" x1="744.5701" y1="541.5504" x2="744.5701" y2="426.2979">
			<stop offset="0" style="stop-color:#F7B01B"/>
			<stop offset="0.3182" style="stop-color:#F49634"/>
			<stop offset="1" style="stop-color:#F15F4E"/>
		</linearGradient>
		<path class="st4" d="M724.91,428.23c0,12.72,0,24.95,0,38.15c2.78-1.78,4.88-3.01,6.87-4.4c7.79-5.45,16.59-5.81,25.14-3.5    c10.71,2.88,17.55,10.63,17.94,21.75c0.68,19.51,0.19,39.06,0.19,58.91c-6.39,0-12.82,0-19.65,0c-0.07-1.42-0.17-2.85-0.19-4.27    c-0.25-14.37-0.43-28.74-0.77-43.11c-0.06-2.48-0.5-5.03-1.24-7.4c-2.4-7.76-11.52-10.59-19-5.92c-5.11,3.19-8.04,7.97-8.27,13.95    c-0.52,13.16-0.74,26.33-1.06,39.5c-0.06,2.34-0.01,4.68-0.01,7.54c-6.55,0-12.75,0.15-18.91-0.18c-0.82-0.04-2.14-2.49-2.16-3.84    c-0.17-11.26-0.1-22.53-0.1-33.8c0-22.98,0.07-45.96-0.08-68.94c-0.02-3.54,1-4.68,4.53-4.51    C713.58,428.43,719.04,428.23,724.91,428.23z"/>
		<linearGradient id="SVGID_4_" gradientUnits="userSpaceOnUse" x1="744.5701" y1="541.5504" x2="744.5701" y2="426.2979">
			<stop offset="0" style="stop-color:#F7B01B"/>
			<stop offset="0.3182" style="stop-color:#F49634"/>
			<stop offset="1" style="stop-color:#F15F4E"/>
		</linearGradient>
		<path class="st5" d="M910.49,459.78c0,12.9-0.06,25.49,0.04,38.08c0.03,3.83,0.33,7.68,0.8,11.49c1.01,8.19,6.11,12.51,14.4,12.44    c7.28-0.06,12.96-4.95,13.27-12.74c0.56-13.91,0.44-27.85,0.59-41.77c0.03-2.48,0-4.95,0-7.64c7.15,0,13.75,0,20.84,0    c0,9.16,0.23,18.16-0.06,27.15c-0.34,10.31-0.18,20.79-1.99,30.88c-2.49,13.9-15.69,23.43-29.98,23.63    c-8.54,0.12-16.89-0.2-24.29-5.24c-9.25-6.3-12.45-15.85-13.9-26.19c-0.63-4.53-0.59-9.17-0.62-13.76    c-0.08-11.99-0.03-23.98-0.03-36.33C896.57,459.78,903.27,459.78,910.49,459.78z"/>
		<linearGradient id="SVGID_5_" gradientUnits="userSpaceOnUse" x1="744.5701" y1="541.5504" x2="744.5701" y2="426.2979">
			<stop offset="0" style="stop-color:#F7B01B"/>
			<stop offset="0.3182" style="stop-color:#F49634"/>
			<stop offset="1" style="stop-color:#F15F4E"/>
		</linearGradient>
		<path class="st6" d="M873.38,475.84c-5.85,3.13-10.43,5.88-15.29,7.98c-1.35,0.58-3.93-0.28-5.29-1.32    c-8.92-6.88-18.67-7.17-28.58-3.31c-9.75,3.79-14.26,13.45-12.69,25.31c1.14,8.66,8.89,15.81,18.44,17.29    c9.03,1.4,16.98-0.52,23.93-6.64c0.89-0.78,3.28-0.92,4.33-0.29c4.56,2.75,8.88,5.89,14.04,9.4c-2.24,2.52-4.09,5.15-6.46,7.18    c-15.95,13.65-52.74,15.56-68.57-8.38c-15.15-22.91-5.42-57.52,26.24-64.38c15.6-3.38,30.44-1.33,43.05,9.48    C868.93,470.21,870.78,472.88,873.38,475.84z"/>
		<linearGradient id="SVGID_6_" gradientUnits="userSpaceOnUse" x1="744.5701" y1="541.5504" x2="744.5701" y2="426.2979">
			<stop offset="0" style="stop-color:#F7B01B"/>
			<stop offset="0.3182" style="stop-color:#F49634"/>
			<stop offset="1" style="stop-color:#F15F4E"/>
		</linearGradient>
		<path class="st7" d="M973.67,526.97c4.24-4.45,8.31-8.72,11.82-12.4c5.31,2.71,10.01,5.25,14.86,7.49    c1.38,0.64,3.38,0.89,4.76,0.39c1.93-0.7,4.65-2.01,5-3.53c0.47-2.02-0.32-5.23-1.8-6.62c-2.62-2.46-6.2-3.89-9.32-5.84    c-4.87-3.06-10.3-5.54-14.4-9.42c-14.35-13.57-8.94-33.55,10.18-38.85c12.77-3.54,27.83,2.05,33.97,12.32    c-4.09,4.36-8.11,8.65-12.22,13.03c-1.95-1.58-3.52-3.2-5.4-4.29c-2.13-1.23-4.55-2.77-6.82-2.74c-2.46,0.03-6.03,1.06-7.08,2.85    c-1.7,2.91,1.25,5.15,3.76,6.52c5.57,3.05,11.41,5.62,16.87,8.84c7.2,4.25,12.21,10.29,13.02,19c1.01,10.87-3.44,18.96-13.1,24.01    C1002.52,545.67,982.06,540.86,973.67,526.97z"/>
		<linearGradient id="SVGID_7_" gradientUnits="userSpaceOnUse" x1="744.5701" y1="541.5504" x2="744.5701" y2="426.2979">
			<stop offset="0" style="stop-color:#F7B01B"/>
			<stop offset="0.3182" style="stop-color:#F49634"/>
			<stop offset="1" style="stop-color:#F15F4E"/>
		</linearGradient>
		<path class="st8" d="M646.65,430.42c0,9.58,0,19.01,0,28.86c3.88,0,7.38,0,11.17,0c0,5.97,0,11.54,0,17.72c-3.53,0-7.13,0-11.16,0    c0,3.54,0,6.47,0,9.4c0,16.17-0.07,32.34,0.06,48.51c0.03,3.29-0.64,4.86-4.4,4.63c-5.29-0.33-10.61-0.08-16.31-0.08    c0-20.88,0-41.29,0-62.14c-3.57,0-6.76,0-10.32,0c0-6.1,0-11.77,0-17.84c3.25,0,6.46,0,10.06,0c0-9.82,0-19.26,0-29.05    C632.73,430.42,639.32,430.42,646.65,430.42z"/>
		<linearGradient id="SVGID_8_" gradientUnits="userSpaceOnUse" x1="744.5701" y1="541.5504" x2="744.5701" y2="426.2979">
			<stop offset="0" style="stop-color:#F7B01B"/>
			<stop offset="0.3182" style="stop-color:#F49634"/>
			<stop offset="1" style="stop-color:#F15F4E"/>
		</linearGradient>
		<path class="st9" d="M588.87,466.34c12.16-10.03,15.81-11.06,25.03-6.85c-2.01,5.7-4.04,11.45-6.05,17.16    c-10.61-1.84-15.1,1.42-15.63,12.22c-0.64,13-0.63,26.03-0.86,39.05c-0.07,3.67-0.01,7.34-0.01,11.27c-6.98,0-13.56,0-20.44,0    c0-26.54,0-52.95,0-79.57c5.94,0,11.66,0,17.58,0C588.62,461.93,588.74,464.07,588.87,466.34z"/>
		<linearGradient id="SVGID_9_" gradientUnits="userSpaceOnUse" x1="744.5701" y1="541.5504" x2="744.5701" y2="426.2979">
			<stop offset="0" style="stop-color:#F7B01B"/>
			<stop offset="0.3182" style="stop-color:#F49634"/>
			<stop offset="1" style="stop-color:#F15F4E"/>
		</linearGradient>
		<path class="st10" d="M665.98,459.59c6.88,0,13.51,0,20.7,0c0,13.28,0,26.42,0,39.56c0,13.19,0,26.38,0,39.94    c-6.9,0-13.63,0-20.7,0C665.98,512.68,665.98,486.23,665.98,459.59z"/>
		<linearGradient id="SVGID_10_" gradientUnits="userSpaceOnUse" x1="744.5701" y1="541.5504" x2="744.5701" y2="426.2979">
			<stop offset="0" style="stop-color:#F7B01B"/>
			<stop offset="0.3182" style="stop-color:#F49634"/>
			<stop offset="1" style="stop-color:#F15F4E"/>
		</linearGradient>
		<path class="st11" d="M689.34,439.48c-0.06,7.9-5.35,13.58-12.7,13.62c-7.57,0.04-13.58-5.95-13.53-13.49    c0.05-7.06,6.44-13.41,13.39-13.3C683.37,426.41,689.39,432.58,689.34,439.48z"/>
		<linearGradient id="SVGID_11_" gradientUnits="userSpaceOnUse" x1="744.5701" y1="541.5504" x2="744.5701" y2="426.2979">
			<stop offset="0" style="stop-color:#F7B01B"/>
			<stop offset="0.3182" style="stop-color:#F49634"/>
			<stop offset="1" style="stop-color:#F15F4E"/>
		</linearGradient>
		<path class="st12" d="M561.4,536.87c-13.19-34.3-26.36-68.61-39.71-102.85c-0.5-1.27-2.67-2.55-4.15-2.67    c-4.58-0.35-9.21,0.05-13.81-0.19c-3.08-0.16-4.69,0.76-5.86,3.79c-12.66,32.93-25.48,65.79-38.21,98.69    c-0.67,1.73-0.98,3.59-1.52,5.62c7.59,0,14.69,0,21.71,0c2.87-7.29,5.67-14.39,8.61-21.86c13.74,0,27.54-0.05,41.34,0.11    c0.98,0.01,2.4,1.47,2.85,2.57c2.25,5.45,4.16,11.04,6.39,16.51c0.46,1.12,1.72,2.68,2.66,2.72c6.63,0.24,13.28,0.13,20.18,0.13    C561.66,538.27,561.65,537.52,561.4,536.87z M496.44,496.39c4.57-11.62,8.99-22.87,13.72-34.9c4.78,12.15,9.16,23.3,13.72,34.9    C514.54,496.39,505.78,496.39,496.44,496.39z"/>
	</g>
</g>
<line class="st13" x1="653.28" y1="566.3" x2="980.67" y2="566.3"/>
<text transform="matrix(1.1584 0 0 1 985.4893 569.5264)" class="st14 st15">...</text>
</svg>